<svg xmlns="http://www.w3.org/2000/svg" width="720" height="960" viewBox="0 0 720 960" fill="none">

  <defs>
    <linearGradient id="panel-epithalon-40mg" x1="84" y1="72" x2="638" y2="880" gradientUnits="userSpaceOnUse">
      <stop stop-color="#ffffff"/>
      <stop offset="0.58" stop-color="#f3f8ff"/>
      <stop offset="1" stop-color="#e4efff"/>
    </linearGradient>
    <linearGradient id="body-epithalon-40mg" x1="0" y1="120" x2="0" y2="820" gradientUnits="userSpaceOnUse">
      <stop stop-color="#ffffff" stop-opacity="0.96"/>
      <stop offset="0.6" stop-color="#f7fbff" stop-opacity="0.98"/>
      <stop offset="1" stop-color="#dceaff" stop-opacity="0.95"/>
    </linearGradient>
    <linearGradient id="neck-epithalon-40mg" x1="0" y1="0" x2="1" y2="1">
      <stop stop-color="#ffffff"/>
      <stop offset="1" stop-color="#e5f0ff"/>
    </linearGradient>
    <linearGradient id="cap-epithalon-40mg" x1="0" y1="0" x2="1" y2="1">
      <stop stop-color="#be123c"/>
      <stop offset="1" stop-color="#fda4af"/>
    </linearGradient>
    <pattern id="pattern-epithalon-40mg" width="64" height="64" patternUnits="userSpaceOnUse"><path d="M0 64L64 0M-16 16L16 -16M48 80L80 48" stroke="#be123c" stroke-opacity="0.055" stroke-width="2"/></pattern>
    <filter id="shadow-epithalon-40mg" x="40" y="50" width="620" height="850" filterUnits="userSpaceOnUse" color-interpolation-filters="sRGB"><feDropShadow dx="0" dy="30" stdDeviation="25" flood-color="#0f2549" flood-opacity="0.18"/></filter>
    <filter id="card-shadow-epithalon-40mg" x="40" y="180" width="320" height="600" filterUnits="userSpaceOnUse" color-interpolation-filters="sRGB"><feDropShadow dx="0" dy="24" stdDeviation="22" flood-color="#0f2549" flood-opacity="0.14"/></filter>
    <filter id="floor-epithalon-40mg" x="130" y="730" width="460" height="130" filterUnits="userSpaceOnUse"><feGaussianBlur stdDeviation="16"/></filter>
  </defs>

    <rect width="720" height="960" rx="0" fill="#f6faff"/>
    <rect x="64" y="72" width="592" height="816" rx="54" fill="url(#panel-epithalon-40mg)"/>
    <rect x="64" y="72" width="592" height="816" rx="54" fill="url(#pattern-epithalon-40mg)" opacity="0.9"/>
    <circle cx="354" cy="490" r="132" fill="#fda4af" fill-opacity="0.13"/>
    <circle cx="314" cy="564" r="178" fill="#be123c" fill-opacity="0.08"/>
    <ellipse cx="360" cy="796" rx="182" ry="30" fill="#0f2549" fill-opacity="0.14" filter="url(#floor-epithalon-40mg)"/>

    <g transform="rotate(-5 209 463)" filter="url(#card-shadow-epithalon-40mg)" opacity="0.98">
      <rect x="104" y="248" width="210" height="430" rx="34" fill="#ffffff" stroke="#dceaff" stroke-width="2"/>
      <rect x="104" y="248" width="210" height="92" rx="34" fill="#be123c"/>
      <rect x="104" y="306" width="210" height="54" fill="#be123c"/>

    <g transform="translate(130 273)" opacity="0.96">
      <path d="M0 16L16 0H44L60 16L30 48L0 16Z" fill="none" stroke="#ffffff" stroke-width="5" stroke-linejoin="round"/>
      <path d="M16 16L30 2L44 16L30 32L16 16Z" fill="none" stroke="#ffffff" stroke-width="4" stroke-linejoin="round"/>
    </g>
      <text x="134" y="410" font-family="Arial, Helvetica, sans-serif" font-size="19" font-weight="800" fill="#10213f">Epithalon</text>
      <text x="134" y="452" font-family="Arial, Helvetica, sans-serif" font-size="38" font-weight="900" fill="#be123c">40mg</text>
      <text x="134" y="500" font-family="Arial, Helvetica, sans-serif" font-size="12" font-weight="800" letter-spacing="2" fill="#64748b">LONGEVITY</text>
      <line x1="134" y1="540" x2="284" y2="540" stroke="#dbeafe" stroke-width="2"/>
      <text x="134" y="582" font-family="Arial, Helvetica, sans-serif" font-size="12" font-weight="800" letter-spacing="1.4" fill="#475569">PP-EPI-PRE</text>
      <rect x="134" y="606" width="150" height="34" rx="17" fill="#fda4af" fill-opacity="0.22"/>
      <text x="209" y="628" text-anchor="middle" font-family="Arial, Helvetica, sans-serif" font-size="11" font-weight="900" letter-spacing="1.8" fill="#be123c">SEALED PACK</text>
    </g>
    <g transform="rotate(4 414 382) scale(1)" filter="url(#shadow-epithalon-40mg)">
      <rect x="346" y="132" width="136" height="84" rx="24" fill="url(#cap-epithalon-40mg)"/>
      <rect x="362" y="150" width="104" height="14" rx="7" fill="#ffffff" fill-opacity="0.28"/>
      <rect x="375" y="226" width="78" height="45" rx="18" fill="url(#neck-epithalon-40mg)" stroke="#d8e7ff"/>
      <path d="M300 271C300 246 320 226 345 226H483C508 226 528 246 528 271V632C528 702 470 752 424 752H404C358 752 300 702 300 632V271Z" fill="url(#body-epithalon-40mg)" stroke="#d7e7ff" stroke-width="2"/>
      <rect x="328" y="302" width="172" height="310" rx="30" fill="#ffffff" fill-opacity="0.98" stroke="#dceaff" stroke-width="2"/>
      <rect x="348" y="326" width="132" height="42" rx="18" fill="#be123c"/>
      <text x="414" y="354" text-anchor="middle" font-family="Arial, Helvetica, sans-serif" font-size="14" font-weight="800" letter-spacing="2" fill="#ffffff">PRIMUS PEPTIDES</text>
      <text x="414" y="438" text-anchor="middle" font-family="Arial, Helvetica, sans-serif" font-size="48" font-weight="800" fill="#10213f">Epithalon</text>
      <text x="414" y="488" text-anchor="middle" font-family="Arial, Helvetica, sans-serif" font-size="30" font-weight="800" letter-spacing="3" fill="#be123c">40mg</text>
      <text x="414" y="538" text-anchor="middle" font-family="Arial, Helvetica, sans-serif" font-size="14" font-weight="800" letter-spacing="2" fill="#64748b">RESEARCH USE ONLY</text>
      <line x1="374" y1="562" x2="454" y2="562" stroke="#d5e4ff" stroke-width="2"/>
      <text x="414" y="592" text-anchor="middle" font-family="Arial, Helvetica, sans-serif" font-size="13" font-weight="800" letter-spacing="1.5" fill="#3e5a82">PP-EPI-PRE</text>
      <rect x="376" y="634" width="76" height="25" rx="12" fill="#fda4af" fill-opacity="0.24"/>
      <text x="414" y="652" text-anchor="middle" font-family="Arial, Helvetica, sans-serif" font-size="11" font-weight="800" letter-spacing="1.8" fill="#be123c">EPITHA VERIFIED</text>
      <ellipse cx="364" cy="392" rx="16" ry="230" fill="#ffffff" fill-opacity="0.27" transform="rotate(7 364 392)"/>
      <ellipse cx="458" cy="462" rx="10" ry="150" fill="#ffffff" fill-opacity="0.18" transform="rotate(-8 458 462)"/>
    </g>
  <text x="104" y="838" font-family="Arial, Helvetica, sans-serif" font-size="12" font-weight="900" letter-spacing="2.4" fill="#be123c" opacity="0.92">LONGEVITY SERIES</text>
  <text x="104" y="864" font-family="Arial, Helvetica, sans-serif" font-size="13" font-weight="800" letter-spacing="1.8" fill="#64748b">PP-EPI-PRE / RESEARCH USE ONLY</text>
</svg>
