<svg xmlns="http://www.w3.org/2000/svg" width="720" height="960" viewBox="0 0 720 960" fill="none">

  <defs>
    <linearGradient id="panel-kpv-10mg" x1="84" y1="72" x2="638" y2="880" gradientUnits="userSpaceOnUse">
      <stop stop-color="#ffffff"/>
      <stop offset="0.58" stop-color="#f3f8ff"/>
      <stop offset="1" stop-color="#e4efff"/>
    </linearGradient>
    <linearGradient id="body-kpv-10mg" x1="0" y1="120" x2="0" y2="820" gradientUnits="userSpaceOnUse">
      <stop stop-color="#ffffff" stop-opacity="0.96"/>
      <stop offset="0.6" stop-color="#f7fbff" stop-opacity="0.98"/>
      <stop offset="1" stop-color="#dceaff" stop-opacity="0.95"/>
    </linearGradient>
    <linearGradient id="neck-kpv-10mg" x1="0" y1="0" x2="1" y2="1">
      <stop stop-color="#ffffff"/>
      <stop offset="1" stop-color="#e5f0ff"/>
    </linearGradient>
    <linearGradient id="cap-kpv-10mg" x1="0" y1="0" x2="1" y2="1">
      <stop stop-color="#15803d"/>
      <stop offset="1" stop-color="#86efac"/>
    </linearGradient>
    <pattern id="pattern-kpv-10mg" width="64" height="64" patternUnits="userSpaceOnUse"><path d="M0 64L64 0M-16 16L16 -16M48 80L80 48" stroke="#15803d" stroke-opacity="0.055" stroke-width="2"/></pattern>
    <filter id="shadow-kpv-10mg" x="40" y="50" width="620" height="850" filterUnits="userSpaceOnUse" color-interpolation-filters="sRGB"><feDropShadow dx="0" dy="30" stdDeviation="25" flood-color="#0f2549" flood-opacity="0.18"/></filter>
    <filter id="card-shadow-kpv-10mg" x="40" y="180" width="320" height="600" filterUnits="userSpaceOnUse" color-interpolation-filters="sRGB"><feDropShadow dx="0" dy="24" stdDeviation="22" flood-color="#0f2549" flood-opacity="0.14"/></filter>
    <filter id="floor-kpv-10mg" x="130" y="730" width="460" height="130" filterUnits="userSpaceOnUse"><feGaussianBlur stdDeviation="16"/></filter>
  </defs>

    <rect width="720" height="960" rx="0" fill="#f6faff"/>
    <rect x="64" y="72" width="592" height="816" rx="54" fill="url(#panel-kpv-10mg)"/>
    <rect x="64" y="72" width="592" height="816" rx="54" fill="url(#pattern-kpv-10mg)" opacity="0.9"/>
    <circle cx="392" cy="548" r="132" fill="#86efac" fill-opacity="0.13"/>
    <circle cx="268" cy="530" r="178" fill="#15803d" fill-opacity="0.08"/>
    <ellipse cx="360" cy="796" rx="182" ry="30" fill="#0f2549" fill-opacity="0.14" filter="url(#floor-kpv-10mg)"/>

    <g transform="rotate(-4 289 392) scale(1)" filter="url(#shadow-kpv-10mg)">
      <rect x="230" y="132" width="118" height="84" rx="24" fill="url(#cap-kpv-10mg)"/>
      <rect x="246" y="150" width="86" height="14" rx="7" fill="#ffffff" fill-opacity="0.28"/>
      <rect x="259" y="226" width="60" height="45" rx="18" fill="url(#neck-kpv-10mg)" stroke="#d8e7ff"/>
      <path d="M184 271C184 246 204 226 229 226H349C374 226 394 246 394 271V652C394 722 336 772 299 772H279C242 772 184 722 184 652V271Z" fill="url(#body-kpv-10mg)" stroke="#d7e7ff" stroke-width="2"/>
      <rect x="212" y="302" width="154" height="310" rx="30" fill="#ffffff" fill-opacity="0.98" stroke="#dceaff" stroke-width="2"/>
      <rect x="232" y="326" width="114" height="42" rx="18" fill="#15803d"/>
      <text x="289" y="354" text-anchor="middle" font-family="Arial, Helvetica, sans-serif" font-size="14" font-weight="800" letter-spacing="2" fill="#ffffff">PRIMUS PEPTIDES</text>
      <text x="289" y="438" text-anchor="middle" font-family="Arial, Helvetica, sans-serif" font-size="48" font-weight="800" fill="#10213f">KPV</text>
      <text x="289" y="488" text-anchor="middle" font-family="Arial, Helvetica, sans-serif" font-size="30" font-weight="800" letter-spacing="3" fill="#15803d">10mg</text>
      <text x="289" y="538" text-anchor="middle" font-family="Arial, Helvetica, sans-serif" font-size="14" font-weight="800" letter-spacing="2" fill="#64748b">RESEARCH USE ONLY</text>
      <line x1="258" y1="562" x2="320" y2="562" stroke="#d5e4ff" stroke-width="2"/>
      <text x="289" y="592" text-anchor="middle" font-family="Arial, Helvetica, sans-serif" font-size="13" font-weight="800" letter-spacing="1.5" fill="#3e5a82">PP-KPV-PRE</text>
      <rect x="260" y="634" width="58" height="25" rx="12" fill="#86efac" fill-opacity="0.24"/>
      <text x="289" y="652" text-anchor="middle" font-family="Arial, Helvetica, sans-serif" font-size="11" font-weight="800" letter-spacing="1.8" fill="#15803d">KPV10M VERIFIED</text>
      <ellipse cx="248" cy="392" rx="16" ry="230" fill="#ffffff" fill-opacity="0.27" transform="rotate(7 248 392)"/>
      <ellipse cx="324" cy="462" rx="10" ry="150" fill="#ffffff" fill-opacity="0.18" transform="rotate(-8 324 462)"/>
    </g>
    <g transform="rotate(6 455 408) scale(1)" filter="url(#shadow-kpv-10mg)">
      <rect x="402" y="168" width="106" height="84" rx="24" fill="url(#cap-kpv-10mg)"/>
      <rect x="418" y="186" width="74" height="14" rx="7" fill="#ffffff" fill-opacity="0.28"/>
      <rect x="431" y="262" width="48" height="45" rx="18" fill="url(#neck-kpv-10mg)" stroke="#d8e7ff"/>
      <path d="M356 307C356 282 376 262 401 262H509C534 262 554 282 554 307V648C554 718 496 768 465 768H445C414 768 356 718 356 648V307Z" fill="url(#body-kpv-10mg)" stroke="#d7e7ff" stroke-width="2"/>
      <rect x="384" y="338" width="142" height="310" rx="30" fill="#ffffff" fill-opacity="0.98" stroke="#dceaff" stroke-width="2"/>
      <rect x="404" y="362" width="102" height="42" rx="18" fill="#15803d"/>
      <text x="455" y="390" text-anchor="middle" font-family="Arial, Helvetica, sans-serif" font-size="14" font-weight="800" letter-spacing="2" fill="#ffffff">PRIMUS PEPTIDES</text>
      <text x="455" y="474" text-anchor="middle" font-family="Arial, Helvetica, sans-serif" font-size="48" font-weight="800" fill="#10213f">KPV</text>
      <text x="455" y="524" text-anchor="middle" font-family="Arial, Helvetica, sans-serif" font-size="30" font-weight="800" letter-spacing="3" fill="#15803d">10mg</text>
      <text x="455" y="574" text-anchor="middle" font-family="Arial, Helvetica, sans-serif" font-size="14" font-weight="800" letter-spacing="2" fill="#64748b">RESEARCH USE ONLY</text>
      <line x1="430" y1="598" x2="480" y2="598" stroke="#d5e4ff" stroke-width="2"/>
      <text x="455" y="628" text-anchor="middle" font-family="Arial, Helvetica, sans-serif" font-size="13" font-weight="800" letter-spacing="1.5" fill="#3e5a82">PP-KPV-PRE</text>
      <rect x="432" y="670" width="46" height="25" rx="12" fill="#86efac" fill-opacity="0.24"/>
      <text x="455" y="688" text-anchor="middle" font-family="Arial, Helvetica, sans-serif" font-size="11" font-weight="800" letter-spacing="1.8" fill="#15803d">KPV10M VERIFIED</text>
      <ellipse cx="420" cy="428" rx="16" ry="230" fill="#ffffff" fill-opacity="0.27" transform="rotate(7 420 428)"/>
      <ellipse cx="484" cy="498" rx="10" ry="150" fill="#ffffff" fill-opacity="0.18" transform="rotate(-8 484 498)"/>
    </g>
  <text x="104" y="838" font-family="Arial, Helvetica, sans-serif" font-size="12" font-weight="900" letter-spacing="2.4" fill="#15803d" opacity="0.92">RECOVERY SERIES</text>
  <text x="104" y="864" font-family="Arial, Helvetica, sans-serif" font-size="13" font-weight="800" letter-spacing="1.8" fill="#64748b">PP-KPV-PRE / RESEARCH USE ONLY</text>
</svg>
