<svg xmlns="http://www.w3.org/2000/svg" width="720" height="960" viewBox="0 0 720 960" fill="none">
  <defs>
    <linearGradient id="body-mots-c-40mg" x1="0" y1="140" x2="0" y2="780" gradientUnits="userSpaceOnUse">
      <stop stop-color="#ffffff" stop-opacity="0.92"/>
      <stop offset="0.55" stop-color="#f5f9ff" stop-opacity="0.98"/>
      <stop offset="1" stop-color="#dbe9ff" stop-opacity="0.95"/>
    </linearGradient>
    <linearGradient id="neck-mots-c-40mg" x1="0" y1="0" x2="1" y2="1">
      <stop stop-color="#ffffff" stop-opacity="0.95"/>
      <stop offset="1" stop-color="#e3eeff" stop-opacity="0.9"/>
    </linearGradient>
    <linearGradient id="cap-mots-c-40mg" x1="0" y1="0" x2="1" y2="1">
      <stop stop-color="#1a6fd6"/>
      <stop offset="1" stop-color="#0d4f9e"/>
    </linearGradient>
    <filter id="shadow-mots-c-40mg" x="120" y="70" width="500" height="820" filterUnits="userSpaceOnUse" color-interpolation-filters="sRGB">
      <feDropShadow dx="0" dy="28" stdDeviation="24" flood-color="#0f2549" flood-opacity="0.18"/>
    </filter>
    <filter id="soft-shadow-mots-c-40mg" x="170" y="710" width="380" height="120" filterUnits="userSpaceOnUse" color-interpolation-filters="sRGB">
      <feGaussianBlur stdDeviation="18"/>
    </filter>
    <pattern id="grid-mots-c-40mg" width="48" height="48" patternUnits="userSpaceOnUse">
      <path d="M48 0H0V48" stroke="#1a6fd6" stroke-opacity="0.06"/>
    </pattern>
  </defs>

  <rect width="720" height="960" fill="none"/>
  <rect x="80" y="90" width="560" height="780" rx="44" fill="url(#grid-mots-c-40mg)"/>
  <ellipse cx="360" cy="780" rx="150" ry="26" fill="#173865" fill-opacity="0.15" filter="url(#soft-shadow-mots-c-40mg)"/>

  <g filter="url(#shadow-mots-c-40mg)">
    <rect x="290" y="120" width="140" height="96" rx="28" fill="url(#cap-mots-c-40mg)"/>
    <rect x="304" y="140" width="112" height="16" rx="8" fill="#ffffff" fill-opacity="0.24"/>
    <rect x="316" y="220" width="88" height="42" rx="18" fill="url(#neck-mots-c-40mg)" stroke="#c7daff" stroke-opacity="0.7"/>
    <path d="M242 262C242 240.909 259.091 223.818 280.182 223.818H439.818C460.909 223.818 478 240.909 478 262V680C478 739.647 429.647 788 370 788H350C290.353 788 242 739.647 242 680V262Z" fill="url(#body-mots-c-40mg)" stroke="#cfe0ff" stroke-width="2"/>
    <path d="M272 312C272 289.909 289.909 272 312 272H408C430.091 272 448 289.909 448 312V665C448 689.301 428.301 709 404 709H316C291.699 709 272 689.301 272 665V312Z" fill="#ffffff" fill-opacity="0.96" stroke="#d9e7ff" stroke-width="2"/>
    <rect x="272" y="294" width="176" height="34" rx="16" fill="#1a6fd6" fill-opacity="0.12"/>
    <rect x="288" y="294" width="144" height="34" rx="14" fill="#1a6fd6"/>
    <text x="360" y="316" text-anchor="middle" font-family="Arial, Helvetica, sans-serif" font-size="14" font-weight="700" letter-spacing="2" fill="#ffffff">PRIMUS PEPTIDES</text>
    <text x="360" y="404" text-anchor="middle" font-family="Arial, Helvetica, sans-serif" font-size="56" font-weight="700" fill="#10213f">MOTS-C</text>
    <text x="360" y="454" text-anchor="middle" font-family="Arial, Helvetica, sans-serif" font-size="28" font-weight="700" letter-spacing="3" fill="#1a6fd6">40mg</text>
    <text x="360" y="515" text-anchor="middle" font-family="Arial, Helvetica, sans-serif" font-size="16" font-weight="700" letter-spacing="2" fill="#64748b">RESEARCH USE ONLY</text>
    <line x1="312" y1="548" x2="408" y2="548" stroke="#d5e4ff" stroke-width="2"/>
    <text x="360" y="585" text-anchor="middle" font-family="Arial, Helvetica, sans-serif" font-size="16" font-weight="700" letter-spacing="2" fill="#3e5a82">BATCH PP-MOT-0426</text>
    <text x="360" y="615" text-anchor="middle" font-family="Arial, Helvetica, sans-serif" font-size="14" font-weight="600" letter-spacing="1.6" fill="#7c8da8">MOTSC ? HPLC VERIFIED</text>
    <rect x="320" y="646" width="80" height="22" rx="11" fill="#dfeeff"/>
    <text x="360" y="661" text-anchor="middle" font-family="Arial, Helvetica, sans-serif" font-size="11" font-weight="700" letter-spacing="1.8" fill="#1a6fd6">EU DISPATCH</text>
    <ellipse cx="310" cy="280" rx="18" ry="210" fill="#ffffff" fill-opacity="0.28" transform="rotate(8 310 280)"/>
    <ellipse cx="400" cy="358" rx="10" ry="160" fill="#ffffff" fill-opacity="0.22" transform="rotate(-8 400 358)"/>
    <path d="M288 690H432" stroke="#bfd4f8" stroke-width="3" stroke-linecap="round"/>
    <path d="M296 716H424" stroke="#d7e6ff" stroke-width="3" stroke-linecap="round"/>
  </g>
</svg>