<svg xmlns="http://www.w3.org/2000/svg" width="720" height="960" viewBox="0 0 720 960" fill="none">

  <defs>
    <linearGradient id="panel-ss-31-50mg" x1="84" y1="72" x2="638" y2="880" gradientUnits="userSpaceOnUse">
      <stop stop-color="#ffffff"/>
      <stop offset="0.58" stop-color="#f3f8ff"/>
      <stop offset="1" stop-color="#e4efff"/>
    </linearGradient>
    <linearGradient id="body-ss-31-50mg" x1="0" y1="120" x2="0" y2="820" gradientUnits="userSpaceOnUse">
      <stop stop-color="#ffffff" stop-opacity="0.96"/>
      <stop offset="0.6" stop-color="#f7fbff" stop-opacity="0.98"/>
      <stop offset="1" stop-color="#dceaff" stop-opacity="0.95"/>
    </linearGradient>
    <linearGradient id="neck-ss-31-50mg" x1="0" y1="0" x2="1" y2="1">
      <stop stop-color="#ffffff"/>
      <stop offset="1" stop-color="#e5f0ff"/>
    </linearGradient>
    <linearGradient id="cap-ss-31-50mg" x1="0" y1="0" x2="1" y2="1">
      <stop stop-color="#4338ca"/>
      <stop offset="1" stop-color="#a78bfa"/>
    </linearGradient>
    <pattern id="pattern-ss-31-50mg" width="64" height="64" patternUnits="userSpaceOnUse"><circle cx="12" cy="12" r="2" fill="#4338ca" fill-opacity="0.08"/><circle cx="44" cy="44" r="2" fill="#a78bfa" fill-opacity="0.1"/></pattern>
    <filter id="shadow-ss-31-50mg" x="40" y="50" width="620" height="850" filterUnits="userSpaceOnUse" color-interpolation-filters="sRGB"><feDropShadow dx="0" dy="30" stdDeviation="25" flood-color="#0f2549" flood-opacity="0.18"/></filter>
    <filter id="card-shadow-ss-31-50mg" x="40" y="180" width="320" height="600" filterUnits="userSpaceOnUse" color-interpolation-filters="sRGB"><feDropShadow dx="0" dy="24" stdDeviation="22" flood-color="#0f2549" flood-opacity="0.14"/></filter>
    <filter id="floor-ss-31-50mg" x="130" y="730" width="460" height="130" filterUnits="userSpaceOnUse"><feGaussianBlur stdDeviation="16"/></filter>
  </defs>

    <rect width="720" height="960" rx="0" fill="#f6faff"/>
    <rect x="64" y="72" width="592" height="816" rx="54" fill="url(#panel-ss-31-50mg)"/>
    <rect x="64" y="72" width="592" height="816" rx="54" fill="url(#pattern-ss-31-50mg)" opacity="0.9"/>
    <circle cx="259" cy="345" r="132" fill="#a78bfa" fill-opacity="0.13"/>
    <circle cx="429" cy="649" r="178" fill="#4338ca" fill-opacity="0.08"/>
    <ellipse cx="360" cy="796" rx="182" ry="30" fill="#0f2549" fill-opacity="0.14" filter="url(#floor-ss-31-50mg)"/>

    <g transform="rotate(-5 217 493)" filter="url(#card-shadow-ss-31-50mg)" opacity="0.98">
      <rect x="112" y="278" width="210" height="430" rx="34" fill="#ffffff" stroke="#dceaff" stroke-width="2"/>
      <rect x="112" y="278" width="210" height="92" rx="34" fill="#4338ca"/>
      <rect x="112" y="336" width="210" height="54" fill="#4338ca"/>

    <g transform="translate(138 303)" opacity="0.96">
      <path d="M0 16L16 0H44L60 16L30 48L0 16Z" fill="none" stroke="#ffffff" stroke-width="5" stroke-linejoin="round"/>
      <path d="M16 16L30 2L44 16L30 32L16 16Z" fill="none" stroke="#ffffff" stroke-width="4" stroke-linejoin="round"/>
    </g>
      <text x="142" y="440" font-family="Arial, Helvetica, sans-serif" font-size="19" font-weight="800" fill="#10213f">SS-31</text>
      <text x="142" y="482" font-family="Arial, Helvetica, sans-serif" font-size="38" font-weight="900" fill="#4338ca">50mg</text>
      <text x="142" y="530" font-family="Arial, Helvetica, sans-serif" font-size="12" font-weight="800" letter-spacing="2" fill="#64748b">LONGEVITY</text>
      <line x1="142" y1="570" x2="292" y2="570" stroke="#dbeafe" stroke-width="2"/>
      <text x="142" y="612" font-family="Arial, Helvetica, sans-serif" font-size="12" font-weight="800" letter-spacing="1.4" fill="#475569">PP-SS31-0426</text>
      <rect x="142" y="636" width="150" height="34" rx="17" fill="#a78bfa" fill-opacity="0.22"/>
      <text x="217" y="658" text-anchor="middle" font-family="Arial, Helvetica, sans-serif" font-size="11" font-weight="900" letter-spacing="1.8" fill="#4338ca">SEALED PACK</text>
    </g>
    <g transform="rotate(-2 430 388) scale(1)" filter="url(#shadow-ss-31-50mg)">
      <rect x="366" y="118" width="128" height="84" rx="24" fill="url(#cap-ss-31-50mg)"/>
      <rect x="382" y="136" width="96" height="14" rx="7" fill="#ffffff" fill-opacity="0.28"/>
      <rect x="395" y="212" width="70" height="45" rx="18" fill="url(#neck-ss-31-50mg)" stroke="#d8e7ff"/>
      <path d="M320 257C320 232 340 212 365 212H495C520 212 540 232 540 257V658C540 728 482 778 440 778H420C378 778 320 728 320 658V257Z" fill="url(#body-ss-31-50mg)" stroke="#d7e7ff" stroke-width="2"/>
      <rect x="348" y="288" width="164" height="310" rx="30" fill="#ffffff" fill-opacity="0.98" stroke="#dceaff" stroke-width="2"/>
      <rect x="368" y="312" width="124" height="42" rx="18" fill="#4338ca"/>
      <text x="430" y="340" text-anchor="middle" font-family="Arial, Helvetica, sans-serif" font-size="14" font-weight="800" letter-spacing="2" fill="#ffffff">PRIMUS PEPTIDES</text>
      <text x="430" y="424" text-anchor="middle" font-family="Arial, Helvetica, sans-serif" font-size="48" font-weight="800" fill="#10213f">SS-31</text>
      <text x="430" y="474" text-anchor="middle" font-family="Arial, Helvetica, sans-serif" font-size="30" font-weight="800" letter-spacing="3" fill="#4338ca">50mg</text>
      <text x="430" y="524" text-anchor="middle" font-family="Arial, Helvetica, sans-serif" font-size="14" font-weight="800" letter-spacing="2" fill="#64748b">RESEARCH USE ONLY</text>
      <line x1="394" y1="548" x2="466" y2="548" stroke="#d5e4ff" stroke-width="2"/>
      <text x="430" y="578" text-anchor="middle" font-family="Arial, Helvetica, sans-serif" font-size="13" font-weight="800" letter-spacing="1.5" fill="#3e5a82">PP-SS31-0426</text>
      <rect x="396" y="620" width="68" height="25" rx="12" fill="#a78bfa" fill-opacity="0.24"/>
      <text x="430" y="638" text-anchor="middle" font-family="Arial, Helvetica, sans-serif" font-size="11" font-weight="800" letter-spacing="1.8" fill="#4338ca">SS31 VERIFIED</text>
      <ellipse cx="384" cy="378" rx="16" ry="230" fill="#ffffff" fill-opacity="0.27" transform="rotate(7 384 378)"/>
      <ellipse cx="470" cy="448" rx="10" ry="150" fill="#ffffff" fill-opacity="0.18" transform="rotate(-8 470 448)"/>
    </g>
  <text x="104" y="838" font-family="Arial, Helvetica, sans-serif" font-size="12" font-weight="900" letter-spacing="2.4" fill="#4338ca" opacity="0.92">LONGEVITY SERIES</text>
  <text x="104" y="864" font-family="Arial, Helvetica, sans-serif" font-size="13" font-weight="800" letter-spacing="1.8" fill="#64748b">PP-SS31-0426 / RESEARCH USE ONLY</text>
</svg>
